<mxfile host="app.diagrams.net" modified="2021-09-14T07:47:56.886Z" agent="5.0 (Macintosh; Intel Mac OS X 10_15_7) AppleWebKit/537.36 (KHTML, like Gecko) Chrome/92.0.4515.131 Safari/537.36" etag="k7g8zYfVkNehRHJkvFv4" version="15.2.1" type="github">
  <diagram id="8i0z2yBYm35wQxp-j-kL" name="Page-1">
    <mxGraphModel dx="1206" dy="670" grid="1" gridSize="10" guides="1" tooltips="1" connect="1" arrows="1" fold="1" page="1" pageScale="1" pageWidth="827" pageHeight="1169" math="0" shadow="0">
      <root>
        <mxCell id="0" />
        <mxCell id="1" parent="0" />
        <mxCell id="KPIgxCdau-Nn7WFb0asv-52" value="sim" style="swimlane;childLayout=stackLayout;horizontal=1;startSize=30;horizontalStack=0;rounded=1;fontSize=14;fontStyle=0;strokeWidth=2;resizeParent=0;resizeLast=1;shadow=0;dashed=0;align=center;" parent="1" vertex="1" collapsed="1">
          <mxGeometry x="80" y="800" width="50" height="30" as="geometry">
            <mxRectangle x="334" y="80" width="160" height="120" as="alternateBounds" />
          </mxGeometry>
        </mxCell>
        <mxCell id="KPIgxCdau-Nn7WFb0asv-53" value="iccid" style="align=left;strokeColor=none;fillColor=none;spacingLeft=4;fontSize=12;verticalAlign=top;resizable=0;rotatable=0;part=1;" parent="KPIgxCdau-Nn7WFb0asv-52" vertex="1">
          <mxGeometry y="30" width="50" as="geometry" />
        </mxCell>
        <mxCell id="KPIgxCdau-Nn7WFb0asv-54" value="umt" style="swimlane;childLayout=stackLayout;horizontal=1;startSize=30;horizontalStack=0;rounded=1;fontSize=14;fontStyle=0;strokeWidth=2;resizeParent=0;resizeLast=1;shadow=0;dashed=0;align=center;" parent="1" vertex="1" collapsed="1">
          <mxGeometry x="75" y="990" width="60" height="30" as="geometry">
            <mxRectangle x="620" y="30" width="160" height="120" as="alternateBounds" />
          </mxGeometry>
        </mxCell>
        <mxCell id="KPIgxCdau-Nn7WFb0asv-55" value="iccid" style="align=left;strokeColor=none;fillColor=none;spacingLeft=4;fontSize=12;verticalAlign=top;resizable=0;rotatable=0;part=1;" parent="KPIgxCdau-Nn7WFb0asv-54" vertex="1">
          <mxGeometry y="30" width="60" as="geometry" />
        </mxCell>
        <mxCell id="KPIgxCdau-Nn7WFb0asv-68" value="config" style="swimlane;childLayout=stackLayout;horizontal=1;startSize=30;horizontalStack=0;rounded=1;fontSize=14;fontStyle=0;strokeWidth=2;resizeParent=0;resizeLast=1;shadow=0;dashed=0;align=center;" parent="1" vertex="1" collapsed="1">
          <mxGeometry x="355" y="990" width="70" height="30" as="geometry">
            <mxRectangle x="620" y="250" width="160" height="120" as="alternateBounds" />
          </mxGeometry>
        </mxCell>
        <mxCell id="KPIgxCdau-Nn7WFb0asv-69" value="iccid" style="align=left;strokeColor=none;fillColor=none;spacingLeft=4;fontSize=12;verticalAlign=top;resizable=0;rotatable=0;part=1;" parent="KPIgxCdau-Nn7WFb0asv-68" vertex="1">
          <mxGeometry y="30" width="70" as="geometry" />
        </mxCell>
        <mxCell id="KPIgxCdau-Nn7WFb0asv-86" value="" style="endArrow=none;html=1;rounded=0;dashed=1;dashPattern=1 2;entryX=0.5;entryY=0;entryDx=0;entryDy=0;exitX=0.5;exitY=1;exitDx=0;exitDy=0;" parent="1" source="KPIgxCdau-Nn7WFb0asv-52" target="KPIgxCdau-Nn7WFb0asv-54" edge="1">
          <mxGeometry relative="1" as="geometry">
            <mxPoint x="215" y="730" as="sourcePoint" />
            <mxPoint x="700" y="980" as="targetPoint" />
          </mxGeometry>
        </mxCell>
        <mxCell id="KPIgxCdau-Nn7WFb0asv-87" value="1" style="resizable=0;html=1;align=right;verticalAlign=bottom;" parent="KPIgxCdau-Nn7WFb0asv-86" connectable="0" vertex="1">
          <mxGeometry x="1" relative="1" as="geometry">
            <mxPoint x="-10" y="-5" as="offset" />
          </mxGeometry>
        </mxCell>
        <mxCell id="KPIgxCdau-Nn7WFb0asv-89" value="" style="endArrow=none;html=1;rounded=0;dashed=1;dashPattern=1 2;exitX=0.5;exitY=1;exitDx=0;exitDy=0;entryX=0.5;entryY=0;entryDx=0;entryDy=0;" parent="1" source="KPIgxCdau-Nn7WFb0asv-52" target="KPIgxCdau-Nn7WFb0asv-68" edge="1">
          <mxGeometry relative="1" as="geometry">
            <mxPoint x="410" y="1040" as="sourcePoint" />
            <mxPoint x="570" y="1040" as="targetPoint" />
          </mxGeometry>
        </mxCell>
        <mxCell id="KPIgxCdau-Nn7WFb0asv-90" value="1" style="resizable=0;html=1;align=right;verticalAlign=bottom;" parent="KPIgxCdau-Nn7WFb0asv-89" connectable="0" vertex="1">
          <mxGeometry x="1" relative="1" as="geometry">
            <mxPoint x="-10" y="-10" as="offset" />
          </mxGeometry>
        </mxCell>
        <mxCell id="KPIgxCdau-Nn7WFb0asv-91" value="" style="endArrow=none;html=1;rounded=0;dashed=1;dashPattern=1 2;exitX=1;exitY=0.5;exitDx=0;exitDy=0;entryX=0;entryY=0.5;entryDx=0;entryDy=0;" parent="1" source="KPIgxCdau-Nn7WFb0asv-54" target="KPIgxCdau-Nn7WFb0asv-68" edge="1">
          <mxGeometry relative="1" as="geometry">
            <mxPoint x="410" y="1040" as="sourcePoint" />
            <mxPoint x="360" y="1040" as="targetPoint" />
          </mxGeometry>
        </mxCell>
        <mxCell id="KPIgxCdau-Nn7WFb0asv-92" value="N" style="resizable=0;html=1;align=right;verticalAlign=bottom;" parent="KPIgxCdau-Nn7WFb0asv-91" connectable="0" vertex="1">
          <mxGeometry x="1" relative="1" as="geometry">
            <mxPoint x="-10" y="-10" as="offset" />
          </mxGeometry>
        </mxCell>
        <mxCell id="QQAnmTs4B6Wm3DgmzwEc-23" value="" style="edgeStyle=orthogonalEdgeStyle;rounded=0;orthogonalLoop=1;jettySize=auto;html=1;" parent="1" source="QQAnmTs4B6Wm3DgmzwEc-12" target="QQAnmTs4B6Wm3DgmzwEc-17" edge="1">
          <mxGeometry relative="1" as="geometry" />
        </mxCell>
        <mxCell id="QQAnmTs4B6Wm3DgmzwEc-12" value="原始卡数据导入" style="ellipse;whiteSpace=wrap;html=1;" parent="1" vertex="1">
          <mxGeometry x="170" y="405" width="140" height="70" as="geometry" />
        </mxCell>
        <mxCell id="QQAnmTs4B6Wm3DgmzwEc-13" value="后台维护人员" style="shape=umlActor;verticalLabelPosition=bottom;verticalAlign=top;html=1;" parent="1" vertex="1">
          <mxGeometry x="100" y="410" width="30" height="60" as="geometry" />
        </mxCell>
        <mxCell id="QQAnmTs4B6Wm3DgmzwEc-19" style="edgeStyle=orthogonalEdgeStyle;rounded=0;orthogonalLoop=1;jettySize=auto;html=1;exitX=1;exitY=0.5;exitDx=0;exitDy=0;entryX=0;entryY=0.5;entryDx=0;entryDy=0;" parent="1" source="QQAnmTs4B6Wm3DgmzwEc-17" target="QQAnmTs4B6Wm3DgmzwEc-18" edge="1">
          <mxGeometry relative="1" as="geometry" />
        </mxCell>
        <mxCell id="QQAnmTs4B6Wm3DgmzwEc-17" value="选择运营商" style="rounded=1;whiteSpace=wrap;html=1;" parent="1" vertex="1">
          <mxGeometry x="345" y="410" width="120" height="60" as="geometry" />
        </mxCell>
        <mxCell id="QQAnmTs4B6Wm3DgmzwEc-21" style="edgeStyle=orthogonalEdgeStyle;rounded=0;orthogonalLoop=1;jettySize=auto;html=1;exitX=1;exitY=0.5;exitDx=0;exitDy=0;entryX=0;entryY=0.5;entryDx=0;entryDy=0;" parent="1" source="QQAnmTs4B6Wm3DgmzwEc-18" target="QQAnmTs4B6Wm3DgmzwEc-20" edge="1">
          <mxGeometry relative="1" as="geometry" />
        </mxCell>
        <mxCell id="QQAnmTs4B6Wm3DgmzwEc-18" value="选择客户" style="rounded=1;whiteSpace=wrap;html=1;" parent="1" vertex="1">
          <mxGeometry x="510" y="410" width="120" height="60" as="geometry" />
        </mxCell>
        <mxCell id="QQAnmTs4B6Wm3DgmzwEc-20" value="导入完成" style="rounded=1;whiteSpace=wrap;html=1;" parent="1" vertex="1">
          <mxGeometry x="670" y="410" width="120" height="60" as="geometry" />
        </mxCell>
        <mxCell id="QQAnmTs4B6Wm3DgmzwEc-24" value="company" style="swimlane;childLayout=stackLayout;horizontal=1;startSize=30;horizontalStack=0;rounded=1;fontSize=14;fontStyle=0;strokeWidth=2;resizeParent=0;resizeLast=1;shadow=0;dashed=0;align=center;" parent="1" vertex="1" collapsed="1">
          <mxGeometry x="155" y="520" width="90" height="30" as="geometry">
            <mxRectangle x="20" y="630" width="160" height="120" as="alternateBounds" />
          </mxGeometry>
        </mxCell>
        <mxCell id="QQAnmTs4B6Wm3DgmzwEc-25" value="id" style="align=left;strokeColor=none;fillColor=none;spacingLeft=4;fontSize=12;verticalAlign=top;resizable=0;rotatable=0;part=1;" parent="QQAnmTs4B6Wm3DgmzwEc-24" vertex="1">
          <mxGeometry y="30" width="90" as="geometry" />
        </mxCell>
        <mxCell id="QQAnmTs4B6Wm3DgmzwEc-26" value="business" style="swimlane;childLayout=stackLayout;horizontal=1;startSize=30;horizontalStack=0;rounded=1;fontSize=14;fontStyle=0;strokeWidth=2;resizeParent=0;resizeLast=1;shadow=0;dashed=0;align=center;" parent="1" vertex="1" collapsed="1">
          <mxGeometry x="440" y="520" width="90" height="30" as="geometry">
            <mxRectangle x="240" y="585" width="160" height="120" as="alternateBounds" />
          </mxGeometry>
        </mxCell>
        <mxCell id="QQAnmTs4B6Wm3DgmzwEc-27" value="id" style="align=left;strokeColor=none;fillColor=none;spacingLeft=4;fontSize=12;verticalAlign=top;resizable=0;rotatable=0;part=1;" parent="QQAnmTs4B6Wm3DgmzwEc-26" vertex="1">
          <mxGeometry y="30" width="90" as="geometry" />
        </mxCell>
        <mxCell id="QQAnmTs4B6Wm3DgmzwEc-29" value="" style="endArrow=none;html=1;rounded=0;dashed=1;dashPattern=1 2;entryX=0;entryY=0.5;entryDx=0;entryDy=0;exitX=1;exitY=0.5;exitDx=0;exitDy=0;" parent="1" source="QQAnmTs4B6Wm3DgmzwEc-24" target="QQAnmTs4B6Wm3DgmzwEc-26" edge="1">
          <mxGeometry relative="1" as="geometry">
            <mxPoint x="370" y="300" as="sourcePoint" />
            <mxPoint x="250" y="250" as="targetPoint" />
            <Array as="points" />
          </mxGeometry>
        </mxCell>
        <mxCell id="QQAnmTs4B6Wm3DgmzwEc-30" value="N" style="resizable=0;html=1;align=right;verticalAlign=bottom;" parent="QQAnmTs4B6Wm3DgmzwEc-29" connectable="0" vertex="1">
          <mxGeometry x="1" relative="1" as="geometry">
            <mxPoint x="-10" y="20" as="offset" />
          </mxGeometry>
        </mxCell>
        <mxCell id="QQAnmTs4B6Wm3DgmzwEc-31" value="services" style="swimlane;childLayout=stackLayout;horizontal=1;startSize=30;horizontalStack=0;rounded=1;fontSize=14;fontStyle=0;strokeWidth=2;resizeParent=0;resizeLast=1;shadow=0;dashed=0;align=center;" parent="1" vertex="1">
          <mxGeometry x="300" y="700" width="180" height="180" as="geometry">
            <mxRectangle x="260" y="690" width="90" height="30" as="alternateBounds" />
          </mxGeometry>
        </mxCell>
        <mxCell id="QQAnmTs4B6Wm3DgmzwEc-32" value="id&#xa;name&#xa;openSimCard&#xa;querySimCardRemainingFLow&#xa;querySimCardExpireDate&#xa;replaceSimCard&#xa;changeSimCardExpireDate&#xa;changeSimCardFlow" style="align=left;strokeColor=none;fillColor=none;spacingLeft=4;fontSize=12;verticalAlign=top;resizable=0;rotatable=0;part=1;" parent="QQAnmTs4B6Wm3DgmzwEc-31" vertex="1">
          <mxGeometry y="30" width="180" height="150" as="geometry" />
        </mxCell>
        <mxCell id="QQAnmTs4B6Wm3DgmzwEc-35" value="" style="endArrow=none;html=1;rounded=0;exitX=0.5;exitY=1;exitDx=0;exitDy=0;entryX=0.5;entryY=0;entryDx=0;entryDy=0;" parent="1" source="QQAnmTs4B6Wm3DgmzwEc-26" target="x91Q8Sjjvkha9xgTCAtK-6" edge="1">
          <mxGeometry relative="1" as="geometry">
            <mxPoint x="340" y="630" as="sourcePoint" />
            <mxPoint x="520" y="630" as="targetPoint" />
          </mxGeometry>
        </mxCell>
        <mxCell id="QQAnmTs4B6Wm3DgmzwEc-36" value="M" style="resizable=0;html=1;align=left;verticalAlign=bottom;" parent="QQAnmTs4B6Wm3DgmzwEc-35" connectable="0" vertex="1">
          <mxGeometry x="-1" relative="1" as="geometry" />
        </mxCell>
        <mxCell id="QQAnmTs4B6Wm3DgmzwEc-37" value="N" style="resizable=0;html=1;align=right;verticalAlign=bottom;" parent="QQAnmTs4B6Wm3DgmzwEc-35" connectable="0" vertex="1">
          <mxGeometry x="1" relative="1" as="geometry" />
        </mxCell>
        <mxCell id="QQAnmTs4B6Wm3DgmzwEc-40" value="" style="endArrow=none;html=1;rounded=0;dashed=1;dashPattern=1 2;exitX=0.5;exitY=1;exitDx=0;exitDy=0;entryX=0.5;entryY=0;entryDx=0;entryDy=0;" parent="1" source="QQAnmTs4B6Wm3DgmzwEc-24" target="KPIgxCdau-Nn7WFb0asv-52" edge="1">
          <mxGeometry relative="1" as="geometry">
            <mxPoint x="160" y="774.5" as="sourcePoint" />
            <mxPoint x="320" y="774.5" as="targetPoint" />
          </mxGeometry>
        </mxCell>
        <mxCell id="QQAnmTs4B6Wm3DgmzwEc-41" value="N" style="resizable=0;html=1;align=right;verticalAlign=bottom;" parent="QQAnmTs4B6Wm3DgmzwEc-40" connectable="0" vertex="1">
          <mxGeometry x="1" relative="1" as="geometry" />
        </mxCell>
        <mxCell id="QQAnmTs4B6Wm3DgmzwEc-42" value="" style="endArrow=none;html=1;rounded=0;entryX=1;entryY=0.5;entryDx=0;entryDy=0;exitX=0;exitY=0.5;exitDx=0;exitDy=0;" parent="1" source="QQAnmTs4B6Wm3DgmzwEc-32" target="KPIgxCdau-Nn7WFb0asv-52" edge="1">
          <mxGeometry relative="1" as="geometry">
            <mxPoint x="350" y="715" as="sourcePoint" />
            <mxPoint x="570" y="700" as="targetPoint" />
          </mxGeometry>
        </mxCell>
        <mxCell id="QQAnmTs4B6Wm3DgmzwEc-43" value="M" style="resizable=0;html=1;align=left;verticalAlign=bottom;" parent="QQAnmTs4B6Wm3DgmzwEc-42" connectable="0" vertex="1">
          <mxGeometry x="-1" relative="1" as="geometry">
            <mxPoint x="-5" y="20" as="offset" />
          </mxGeometry>
        </mxCell>
        <mxCell id="QQAnmTs4B6Wm3DgmzwEc-44" value="N" style="resizable=0;html=1;align=right;verticalAlign=bottom;" parent="QQAnmTs4B6Wm3DgmzwEc-42" connectable="0" vertex="1">
          <mxGeometry x="1" relative="1" as="geometry" />
        </mxCell>
        <mxCell id="x91Q8Sjjvkha9xgTCAtK-5" value="" style="endArrow=diamondThin;endFill=0;endSize=24;html=1;exitX=0;exitY=0.5;exitDx=0;exitDy=0;" edge="1" parent="1" source="x91Q8Sjjvkha9xgTCAtK-11">
          <mxGeometry width="160" relative="1" as="geometry">
            <mxPoint x="580" y="800" as="sourcePoint" />
            <mxPoint x="480" y="805" as="targetPoint" />
          </mxGeometry>
        </mxCell>
        <mxCell id="x91Q8Sjjvkha9xgTCAtK-6" value="specification" style="swimlane;childLayout=stackLayout;horizontal=1;startSize=30;horizontalStack=0;rounded=1;fontSize=14;fontStyle=0;strokeWidth=2;resizeParent=0;resizeLast=1;shadow=0;dashed=0;align=center;" vertex="1" collapsed="1" parent="1">
          <mxGeometry x="360" y="610" width="90" height="30" as="geometry">
            <mxRectangle x="240" y="585" width="160" height="120" as="alternateBounds" />
          </mxGeometry>
        </mxCell>
        <mxCell id="x91Q8Sjjvkha9xgTCAtK-7" value="id" style="align=left;strokeColor=none;fillColor=none;spacingLeft=4;fontSize=12;verticalAlign=top;resizable=0;rotatable=0;part=1;" vertex="1" parent="x91Q8Sjjvkha9xgTCAtK-6">
          <mxGeometry y="30" width="90" as="geometry" />
        </mxCell>
        <mxCell id="x91Q8Sjjvkha9xgTCAtK-8" value="" style="endArrow=none;html=1;rounded=0;exitX=0.5;exitY=1;exitDx=0;exitDy=0;entryX=0.5;entryY=0;entryDx=0;entryDy=0;" edge="1" parent="1" source="x91Q8Sjjvkha9xgTCAtK-6" target="QQAnmTs4B6Wm3DgmzwEc-31">
          <mxGeometry relative="1" as="geometry">
            <mxPoint x="570" y="600" as="sourcePoint" />
            <mxPoint x="490" y="660" as="targetPoint" />
          </mxGeometry>
        </mxCell>
        <mxCell id="x91Q8Sjjvkha9xgTCAtK-9" value="M" style="resizable=0;html=1;align=left;verticalAlign=bottom;" connectable="0" vertex="1" parent="x91Q8Sjjvkha9xgTCAtK-8">
          <mxGeometry x="-1" relative="1" as="geometry" />
        </mxCell>
        <mxCell id="x91Q8Sjjvkha9xgTCAtK-10" value="N" style="resizable=0;html=1;align=right;verticalAlign=bottom;" connectable="0" vertex="1" parent="x91Q8Sjjvkha9xgTCAtK-8">
          <mxGeometry x="1" relative="1" as="geometry" />
        </mxCell>
        <mxCell id="x91Q8Sjjvkha9xgTCAtK-11" value="sim info" style="swimlane;childLayout=stackLayout;horizontal=1;startSize=30;horizontalStack=0;rounded=1;fontSize=14;fontStyle=0;strokeWidth=2;resizeParent=0;resizeLast=1;shadow=0;dashed=0;align=center;" vertex="1" collapsed="1" parent="1">
          <mxGeometry x="570" y="790" width="70" height="30" as="geometry">
            <mxRectangle x="620" y="250" width="160" height="120" as="alternateBounds" />
          </mxGeometry>
        </mxCell>
        <mxCell id="x91Q8Sjjvkha9xgTCAtK-12" value="iccid" style="align=left;strokeColor=none;fillColor=none;spacingLeft=4;fontSize=12;verticalAlign=top;resizable=0;rotatable=0;part=1;" vertex="1" parent="x91Q8Sjjvkha9xgTCAtK-11">
          <mxGeometry y="30" width="70" as="geometry" />
        </mxCell>
      </root>
    </mxGraphModel>
  </diagram>
</mxfile>
